# xmcd
#
# Track frame offsets: 
#        150
#        15866
#        31861
#        44723
#        49441
#        62347
#        73107
#        84653
#        97138
#        107661
#        119509
#        131372
#        143487
#        158125
#        171995
#        185618
#        198613
#        214857
#
# Disc length: 3000 seconds
#
# Revision: 2
# Processed by: cddbd v1.5.2PL0 Copyright (c) Steve Scherf et al.
# Submitted via: ExactAudioCopy v0.99pb5
#
DISCID=050bb612
DTITLE=Various Artist - High Lonesome
DYEAR=1900
DGENRE=
TTITLE0=Bill Monroe - With Body and Soul
TTITLE1=Kenny Baker and Bill Monroe - Jerusalem's Ridge
TTITLE2=Ralph Stanley - The Fields Have Turned Brown
TTITLE3=Bill Monroe - Going Across the Sea
TTITLE4=Mac Wiseman - I Wonder How the Old Folks Are at Home
TTITLE5=Osborne Brothers - Rocky Top
TTITLE6=Jimmy Martin - Sunny Side of the Mountain
TTITLE7=Jim and Jesse MacReynolds - Paradise
TTITLE8=Mac Wiseman - Train
TTITLE9=Stanley Brothes - Meet Me By the Moonlight
TTITLE10=Bill Monroe - Voice from on High
TTITLE11=Ralph Stanley - Gloryland
TTITLE12=Seldom Scene - Muddy Waters
TTITLE13=Jimmy Martin - Free Born Man
TTITLE14=Osborne Brothers - Ruby
TTITLE15=Seldom Scene - Little Georgia Rose
TTITLE16=Ralph Stanley - Pretty Polly
TTITLE17=Bill Monroe - I'm on My Way to the Old Home
EXTD=
EXTT0=
EXTT1=
EXTT2=
EXTT3=
EXTT4=
EXTT5=
EXTT6=
EXTT7=
EXTT8=
EXTT9=
EXTT10=
EXTT11=
EXTT12=
EXTT13=
EXTT14=
EXTT15=
EXTT16=
EXTT17=
PLAYORDER=
